# xmcd CD database file
#
# Track frame offsets:
#	150
#	18316
#	44934
#	65159
#	89482
#	105467
#	133724
#	152304
#	173931
#	188799
#	204861
#	230650
#	253852
#	276060
#	289588
#
# Disc length: 4069 seconds
#
# Revision: 0
# Processed by: cddbd v1.5.2PL0 Copyright (c) Steve Scherf et al.
# Submitted via: jetAudio 7
#
DISCID=d80fe30f
DTITLE=Various Artist - Time Life - Classic Soul Ballads
DYEAR=1900
DGENRE=Vocal/R&B
TTITLE0=Sexual Healing
TTITLE1=Turn Off The lights
TTITLE2=After The Love Has Gone
TTITLE3=Here and Now
TTITLE4=You'll Never Find Another Love Like Mine
TTITLE5=Always and Forever
TTITLE6=Shake You Down
TTITLE7=Me and Mrs. Jones
TTITLE8=Betcha By Golly, Wow
TTITLE9=Kiss and Say Goodbye
TTITLE10=Caravan Of Love
TTITLE11=Have You Seen Her
TTITLE12=Shower Me With Your Love
TTITLE13=When Will I see You Again
TTITLE14=If You Don't Know Me By Now
EXTD=
EXTT0=
EXTT1=
EXTT2=
EXTT3=
EXTT4=
EXTT5=
EXTT6=
EXTT7=
EXTT8=
EXTT9=
EXTT10=
EXTT11=
EXTT12=
EXTT13=
EXTT14=
PLAYORDER=
